<svg id="Layer_1" data-name="Layer 1" xmlns="http://www.w3.org/2000/svg" xmlns:xlink="http://www.w3.org/1999/xlink" viewBox="0 0 3675.84 3675.84"><defs><style>.cls-1,.cls-2{fill:none;}.cls-2,.cls-4{stroke:#000;stroke-miterlimit:10;stroke-width:200px;}.cls-3{clip-path:url(#clip-path);}</style><clipPath id="clip-path" transform="translate(-6160.58 -5750.08)"><path class="cls-1" d="M9833,9427H6163V5757H9833ZM8097,6245H7900V8927h197ZM6657,7480v210h752l99-110.86L7409,7480Zm1939,0-98,99.14L8596,7690h752V7480ZM7202,7793l507,507-9-610H7295Zm1496.5-103H8293q-4.24,305-8.5,610l507-507ZM7296.25,7480h405l9-610-507,507Zm1496.5-103-507-507q4.24,305,8.5,610h405.5Z"/></clipPath></defs><rect class="cls-2" x="6798.89" y="6388.39" width="2399.21" height="2399.21" transform="translate(-9183.4 2128.19) rotate(-45)"/><g class="cls-3"><rect class="cls-4" x="7188.01" y="6776.51" width="1619.98" height="1619.98" transform="translate(-9182.48 2127.4) rotate(-45)"/></g></svg>